<?xml version="1.0" encoding="UTF-8" standalone="no"?><!-- Generator: Gravit.io --><svg xmlns="http://www.w3.org/2000/svg" xmlns:xlink="http://www.w3.org/1999/xlink" style="isolation:isolate" viewBox="0 0 1024 1024" width="1024pt" height="1024pt"><defs><clipPath id="_clipPath_10bPYDfwCb0xl6SQAbFMEwBtrHvnKilq"><rect width="1024" height="1024"/></clipPath></defs><g clip-path="url(#_clipPath_10bPYDfwCb0xl6SQAbFMEwBtrHvnKilq)"><linearGradient id="_lgradient_0" x1="-0.02483755129958974" y1="0.9636627906976742" x2="1.0338577291381672" y2="0.005001709986320102" gradientTransform="matrix(1024,0,0,1024,0,0)" gradientUnits="userSpaceOnUse"><stop offset="0%" stop-opacity="1" style="stop-color:rgb(251,200,212)"/><stop offset="100%" stop-opacity="1" style="stop-color:rgb(151,149,240)"/></linearGradient><circle vector-effect="non-scaling-stroke" cx="512" cy="512" r="512" fill="url(#_lgradient_0)"/><path d=" M 442.392 339.968 L 276.504 339.968 L 276.504 506.368 L 427.032 506.368 L 427.032 515.584 L 276.504 515.584 L 276.504 681.984 L 442.392 681.984 L 442.392 691.2 L 266.264 691.2 L 266.264 330.752 L 442.392 330.752 L 442.392 339.968 L 442.392 339.968 Z  M 633.88 411.136 L 633.88 411.136 Q 672.28 411.136 703 428.288 L 703 428.288 L 703 428.288 Q 733.72 445.44 751.128 477.44 L 751.128 477.44 L 751.128 477.44 Q 768.536 509.44 768.536 552.96 L 768.536 552.96 L 768.536 552.96 Q 768.536 596.48 751.128 628.48 L 751.128 628.48 L 751.128 628.48 Q 733.72 660.48 703 677.632 L 703 677.632 L 703 677.632 Q 672.28 694.784 633.88 694.784 L 633.88 694.784 L 633.88 694.784 Q 595.48 694.784 564.76 677.632 L 564.76 677.632 L 564.76 677.632 Q 534.04 660.48 516.376 628.48 L 516.376 628.48 L 516.376 628.48 Q 498.712 596.48 498.712 552.96 L 498.712 552.96 L 498.712 552.96 Q 498.712 509.44 516.376 477.44 L 516.376 477.44 L 516.376 477.44 Q 534.04 445.44 564.76 428.288 L 564.76 428.288 L 564.76 428.288 Q 595.48 411.136 633.88 411.136 L 633.88 411.136 L 633.88 411.136 Z  M 633.88 420.352 L 633.88 420.352 Q 600.6 420.352 572.184 434.944 L 572.184 434.944 L 572.184 434.944 Q 543.768 449.536 526.36 479.488 L 526.36 479.488 L 526.36 479.488 Q 508.952 509.44 508.952 552.96 L 508.952 552.96 L 508.952 552.96 Q 508.952 596.48 526.36 626.432 L 526.36 626.432 L 526.36 626.432 Q 543.768 656.384 572.184 670.976 L 572.184 670.976 L 572.184 670.976 Q 600.6 685.568 633.88 685.568 L 633.88 685.568 L 633.88 685.568 Q 667.16 685.568 695.32 670.976 L 695.32 670.976 L 695.32 670.976 Q 723.48 656.384 740.888 626.688 L 740.888 626.688 L 740.888 626.688 Q 758.296 596.992 758.296 552.96 L 758.296 552.96 L 758.296 552.96 Q 758.296 508.928 740.888 479.232 L 740.888 479.232 L 740.888 479.232 Q 723.48 449.536 695.32 434.944 L 695.32 434.944 L 695.32 434.944 Q 667.16 420.352 633.88 420.352 L 633.88 420.352 L 633.88 420.352 Z " fill="rgb(255,255,255)"/></g></svg>